<svg xmlns="http://www.w3.org/2000/svg" width="255" height="56" fill="none"><path fill="#fff" d="M6 12h32v32H6zM40.909 12h16v32h-16zM59.818 12h7.273v32h-7.273zM90.216 31.69H79.449l-1.886 4.388c-.465 1.066-.698 1.873-.698 2.42 0 .219.034.424.103.615.082.178.239.349.471.513.233.15.561.28.985.39.424.095.977.17 1.661.225V41h-8.757v-.759c1.149-.205 1.9-.471 2.256-.8.355-.328.718-.82 1.087-1.476.383-.67.793-1.51 1.23-2.523l9.783-22.886h.717l9.68 23.133c.397.956.759 1.729 1.087 2.317.342.574.69 1.025 1.046 1.353a3.05 3.05 0 0 0 1.148.657c.424.123.923.198 1.497.225V41H89.888v-.759a6.964 6.964 0 0 0 1.374-.184c.369-.096.656-.22.861-.37.219-.15.37-.32.451-.512.096-.192.144-.403.144-.636.013-.3-.055-.684-.205-1.148a15.907 15.907 0 0 0-.616-1.703l-1.681-3.999Zm-.574-1.518-4.717-11.238-4.84 11.238h9.557Zm18.518-8.51v4.224c1.586-2.817 3.199-4.225 4.84-4.225.369 0 .711.062 1.025.185.315.123.588.294.821.512.246.206.43.445.553.718.137.274.205.56.205.861 0 .534-.177.985-.533 1.354-.355.37-.779.554-1.271.554-.233 0-.492-.075-.779-.226a25.75 25.75 0 0 1-.862-.471l-.759-.493c-.232-.15-.41-.225-.533-.225-.178 0-.376.082-.595.246-.218.15-.444.369-.676.656a8.32 8.32 0 0 0-.718 1.005c-.246.383-.485.807-.718 1.271v9.003c0 .56.034 1.067.103 1.518.068.451.212.834.43 1.148.233.315.568.56 1.005.739.438.164 1.019.246 1.743.246V41h-9.618v-.738c.602 0 1.094-.041 1.477-.123.383-.082.683-.246.902-.492.219-.247.369-.595.451-1.046.082-.465.123-1.074.123-1.826v-7.28c0-2.215-.047-3.514-.143-3.896-.178-.807-.636-1.21-1.374-1.21-.424 0-.903.102-1.436.307l-.205-.738 5.681-2.297h.861Zm13.515 12.488c-1.162-.574-2.051-1.353-2.666-2.337-.602-.998-.903-2.113-.903-3.343 0-.93.185-1.805.554-2.625a6.48 6.48 0 0 1 1.559-2.174 7.53 7.53 0 0 1 2.358-1.456c.916-.37 1.921-.554 3.015-.554 1.804 0 3.356.438 4.655 1.313h3.979c.3 0 .526.006.676.02.164 0 .281.014.349.041.082.014.13.034.144.062a.931.931 0 0 0 .061.102c.082.123.123.342.123.656 0 .206-.007.376-.02.513a.353.353 0 0 1-.123.287c-.069.069-.199.116-.39.144-.178.014-.451.02-.82.02h-2.441c.766.998 1.149 2.256 1.149 3.774 0 .861-.178 1.681-.534 2.46a5.89 5.89 0 0 1-1.476 2.01c-.643.575-1.422 1.033-2.338 1.374-.916.342-1.935.513-3.056.513-.916 0-1.866-.137-2.85-.41-.616.52-1.026.978-1.231 1.374-.205.383-.307.711-.307.984 0 .205.041.383.123.534.082.15.273.28.574.39.314.095.772.177 1.374.245.601.055 1.422.096 2.461.123 1.408.041 2.563.083 3.466.123.916.041 1.586.096 2.009.164a5.728 5.728 0 0 1 1.723.493c.52.246.957.553 1.313.923.369.369.649.792.84 1.271.205.479.308.998.308 1.559 0 1.545-.725 2.994-2.174 4.347-2.146 1.996-4.929 2.995-8.347 2.995-.943 0-1.9-.103-2.871-.308a13.053 13.053 0 0 1-2.645-.841c-.793-.342-1.442-.752-1.948-1.23-.506-.479-.759-.992-.759-1.538 0-.206.027-.418.082-.636.068-.205.164-.43.287-.677.137-.233.308-.492.513-.78.218-.286.478-.621.779-1.004.096-.123.793-.861 2.092-2.215-.711-.424-1.217-.8-1.518-1.128a1.74 1.74 0 0 1-.43-1.148c0-.247.034-.5.102-.76.068-.273.219-.58.451-.922a9.16 9.16 0 0 1 .985-1.169 25.897 25.897 0 0 1 1.743-1.559Zm3.568-11.505c-.492 0-.957.103-1.394.308a3.008 3.008 0 0 0-1.149.902c-.314.397-.567.91-.759 1.539-.177.615-.266 1.34-.266 2.173 0 .93.089 1.785.266 2.564.192.78.465 1.456.821 2.03.355.56.786.998 1.292 1.313.506.314 1.08.471 1.722.471.52 0 .998-.095 1.436-.287a2.93 2.93 0 0 0 1.128-.882c.314-.396.56-.895.738-1.497.178-.615.267-1.34.267-2.174 0-.916-.096-1.763-.287-2.543-.178-.793-.445-1.476-.8-2.05-.342-.588-.766-1.046-1.272-1.374-.506-.328-1.087-.493-1.743-.493ZM121.47 41c-1.299 1.408-1.949 2.611-1.949 3.61 0 .45.185.86.554 1.23.383.369.896.683 1.538.943.643.26 1.395.458 2.256.595.875.15 1.798.225 2.769.225 1.23 0 2.297-.123 3.199-.369.916-.246 1.668-.567 2.256-.964.588-.382 1.025-.82 1.312-1.312.287-.478.431-.957.431-1.435 0-.356-.075-.657-.226-.903-.15-.246-.423-.451-.82-.615-.383-.15-.916-.274-1.6-.37a29.03 29.03 0 0 0-2.625-.163 96.174 96.174 0 0 1-4.081-.185A50.911 50.911 0 0 1 121.47 41Zm25.368-19.339c1.326 0 2.543.26 3.65.78a8.902 8.902 0 0 1 2.851 2.091 9.268 9.268 0 0 1 1.866 3.056c.451 1.162.677 2.386.677 3.67 0 1.354-.233 2.653-.697 3.897a10.606 10.606 0 0 1-1.908 3.282 9.433 9.433 0 0 1-2.932 2.296c-1.135.56-2.379.841-3.733.841-1.326 0-2.536-.273-3.63-.82a9.055 9.055 0 0 1-2.789-2.174 10.048 10.048 0 0 1-1.804-3.138 10.68 10.68 0 0 1-.636-3.65c0-1.272.219-2.516.656-3.732a10.527 10.527 0 0 1 1.846-3.24 9.357 9.357 0 0 1 2.871-2.297c1.121-.575 2.358-.862 3.712-.862Zm-.636 1.333c-.601 0-1.182.13-1.743.39-.547.246-1.039.656-1.477 1.23-.423.56-.765 1.292-1.025 2.195-.26.888-.39 1.975-.39 3.26 0 1.326.137 2.598.411 3.815.287 1.217.683 2.29 1.189 3.22.52.916 1.142 1.647 1.866 2.194.738.547 1.559.82 2.461.82a4.35 4.35 0 0 0 1.805-.369c.56-.26 1.046-.67 1.456-1.23.41-.575.731-1.327.964-2.256.232-.93.348-2.072.348-3.425a17.84 17.84 0 0 0-.389-3.815c-.26-1.189-.643-2.228-1.149-3.117-.492-.902-1.107-1.613-1.845-2.133-.725-.52-1.552-.779-2.482-.779Zm17.944-1.333v4.225c1.586-2.817 3.2-4.225 4.84-4.225.369 0 .711.062 1.026.185.314.123.588.294.82.512.246.206.431.445.554.718.136.274.205.56.205.861 0 .534-.178.985-.533 1.354-.356.37-.78.554-1.272.554-.232 0-.492-.075-.779-.226-.287-.15-.574-.308-.861-.471l-.759-.493c-.233-.15-.41-.225-.533-.225-.178 0-.376.082-.595.246a3.32 3.32 0 0 0-.677.656 8.433 8.433 0 0 0-.718 1.005c-.246.383-.485.807-.718 1.271v9.003c0 .56.035 1.067.103 1.518.068.451.212.834.431 1.148.232.315.567.56 1.005.739.437.164 1.018.246 1.743.246V41h-9.618v-.738c.601 0 1.093-.041 1.476-.123.383-.082.684-.246.902-.492.219-.247.37-.595.452-1.046.082-.465.123-1.074.123-1.826v-7.28c0-2.215-.048-3.514-.144-3.896-.178-.807-.636-1.21-1.374-1.21-.424 0-.902.102-1.435.307l-.206-.738 5.681-2.297h.861Zm13.269-9.823c.287 0 .554.055.8.164.26.11.478.26.656.451.191.178.342.397.451.656.11.246.164.513.164.8 0 .287-.054.56-.164.82-.109.247-.26.465-.451.657a1.874 1.874 0 0 1-.656.45 2.088 2.088 0 0 1-1.62 0 2.175 2.175 0 0 1-1.108-1.107 2.1 2.1 0 0 1-.164-.82c0-.287.055-.554.164-.8.11-.26.253-.478.431-.656a2.09 2.09 0 0 1 .677-.451c.259-.11.533-.164.82-.164Zm1.702 9.823v15.094c0 .601.021 1.094.062 1.476.041.37.102.67.184.903.082.232.185.41.308.533.137.11.287.212.451.308.356.191.971.287 1.846.287V41h-9.126v-.738c.465 0 .841-.02 1.128-.062.301-.04.54-.11.718-.205.191-.096.334-.212.43-.348a3.2 3.2 0 0 0 .308-.534c.191-.423.287-1.21.287-2.358v-7.24c0-1.189-.021-2.125-.062-2.809-.041-.683-.116-1.196-.225-1.538-.096-.342-.246-.554-.451-.636-.192-.096-.438-.143-.739-.143-.382 0-.847.102-1.394.307l-.287-.738 5.66-2.297h.902Zm10.664-5.619v6.173h4.389v1.435h-4.389v12.182c0 .615.048 1.128.144 1.538.096.397.225.711.389.944.165.232.356.396.575.492.232.082.485.123.758.123.452 0 .889-.137 1.313-.41.424-.288.752-.704.984-1.251h.8a7.637 7.637 0 0 1-.902 1.763 6.05 6.05 0 0 1-1.128 1.272c-.41.328-.848.574-1.313.738a3.872 3.872 0 0 1-1.394.267 3.43 3.43 0 0 1-.964-.144 3.693 3.693 0 0 1-.902-.37 4.13 4.13 0 0 1-.759-.635 2.817 2.817 0 0 1-.554-.861c-.287-.656-.431-1.661-.431-3.015V23.65h-2.973v-.676c.752-.301 1.517-.807 2.297-1.518a12.208 12.208 0 0 0 2.112-2.563c.15-.26.335-.623.554-1.087.232-.479.485-1.067.759-1.764h.635Zm11.751-4.204v13.74a29.72 29.72 0 0 0 1.292-1.333c.438-.465.903-.889 1.395-1.271a7.237 7.237 0 0 1 1.599-.944c.588-.246 1.251-.369 1.99-.369.998 0 1.811.219 2.44.656a4.333 4.333 0 0 1 1.477 1.723c.355.711.594 1.524.717 2.44.137.916.205 1.86.205 2.83v7.445c0 .629.007 1.162.021 1.6.027.423.123.772.287 1.045.178.26.451.458.82.595.383.137.937.226 1.662.267V41h-9.229v-.738h.431c.615 0 1.093-.055 1.435-.164.342-.11.602-.294.78-.554.177-.273.287-.636.328-1.087a19.42 19.42 0 0 0 .061-1.702V29.31c0-.587-.014-1.182-.041-1.784a5.214 5.214 0 0 0-.287-1.66 2.549 2.549 0 0 0-.902-1.231c-.41-.328-1.005-.492-1.784-.492-.342 0-.684.04-1.026.123a3.976 3.976 0 0 0-1.087.41 6.683 6.683 0 0 0-1.189.82c-.424.342-.889.786-1.395 1.333v9.926c0 .67.014 1.196.041 1.579.028.37.075.656.144.861.082.205.184.356.307.452.137.095.308.198.513.307.192.11.458.191.8.246.342.041.752.062 1.23.062V41h-9.31v-.738c.519 0 .957-.028 1.312-.082.369-.069.67-.22.903-.452.232-.232.396-.58.492-1.045.109-.479.164-1.121.164-1.928V19.754c0-2.12-.055-3.439-.164-3.958-.096-.492-.253-.827-.472-1.005-.205-.178-.485-.267-.841-.267-.314 0-.779.11-1.394.329l-.287-.718 5.619-2.297h.943Zm21.062 13.822c1.367-1.367 2.174-2.153 2.42-2.358a7.315 7.315 0 0 1 1.989-1.21 5.61 5.61 0 0 1 2.112-.43c1.19 0 2.201.34 3.035 1.024.848.67 1.415 1.662 1.703 2.974 1.408-1.627 2.597-2.7 3.568-3.22.971-.52 1.969-.779 2.994-.779.684 0 1.326.116 1.928.349.601.232 1.121.622 1.558 1.169.452.533.807 1.25 1.067 2.153.26.902.389 2.017.389 3.343v8.08c0 .615.014 1.148.041 1.6.041.437.151.8.329 1.086.177.287.458.5.84.636.383.123.923.185 1.621.185V41h-9.27v-.738h.39c.683 0 1.237-.11 1.661-.328.424-.22.724-.616.902-1.19.055-.205.082-.868.082-1.99v-8.08c0-.901-.068-1.64-.205-2.214-.137-.588-.342-1.053-.615-1.395a2.025 2.025 0 0 0-.964-.738c-.383-.137-.827-.205-1.333-.205-.369 0-.732.041-1.087.123a4.593 4.593 0 0 0-1.087.43c-.383.206-.8.48-1.251.821-.437.328-.923.745-1.456 1.251l.041 10.008c0 .67.014 1.196.041 1.579.027.37.075.656.144.861a.976.976 0 0 0 .328.431c.137.096.307.205.512.328.192.11.458.191.8.246.342.041.752.062 1.231.062V41h-9.495v-.738c.738 0 1.312-.048 1.722-.144.424-.11.732-.294.923-.553.192-.274.308-.636.349-1.087.041-.452.061-1.026.061-1.723v-8.08c0-.875-.082-1.607-.246-2.195-.15-.587-.369-1.06-.656-1.415a2.403 2.403 0 0 0-1.025-.758 3.199 3.199 0 0 0-1.272-.246 3.99 3.99 0 0 0-1.394.266 7.332 7.332 0 0 0-1.374.636 7.237 7.237 0 0 0-1.169.84c-.356.302-.65.595-.882.883v10.069c0 .642.02 1.155.061 1.538.041.37.103.67.185.902.082.22.184.383.307.492.137.11.288.212.452.308.341.178 1.025.267 2.05.267V41h-9.29v-.738c.629 0 1.128-.048 1.497-.144.383-.096.67-.266.862-.513.205-.26.335-.615.389-1.066.069-.465.103-1.06.103-1.784v-7.178c0-1.217-.021-2.167-.062-2.85-.041-.698-.116-1.217-.225-1.559-.11-.355-.26-.574-.451-.656-.192-.082-.438-.123-.739-.123-.382 0-.84.102-1.374.307l-.307-.738 5.66-2.297h.882v4Z"/></svg>